<?xml version="1.0" encoding="UTF-8"?><svg id="a" xmlns="http://www.w3.org/2000/svg" viewBox="0 0 153.14 172.48"><defs><style>.b{fill:#231f20;}</style></defs><path class="b" d="M111.42,116.03c0,9.64-3.4,17.86-10.19,24.65-6.79,6.79-15.01,10.19-24.65,10.19s-17.86-3.4-24.65-10.19-10.19-15.01-10.19-24.65V26.31h21.6V116.03c0,3.72,1.31,6.85,3.92,9.41,2.61,2.56,5.75,3.83,9.41,3.83s6.77-1.28,9.32-3.83,3.83-5.69,3.83-9.41V26.31h21.6V116.03Z"/><path class="b" d="M111.42,44.79s38.42,7.85,36.23-36.02c0,0,26.32,42.83-36.23,62v-25.98Z"/><path class="b" d="M41.73,44.79S3.31,52.64,5.5,8.77c0,0-26.32,42.83,36.23,62v-25.98Z"/></svg>